<svg xmlns="http://www.w3.org/2000/svg" viewBox="0 0 108 118"><defs><style>.cls-1{fill:#8a7a61;}.cls-1,.cls-2{fill-rule:evenodd;}.cls-2{fill:#fff;}</style></defs><title>搜尋</title><g id="按鍵"><path class="cls-1" d="M30.08,54V50.73c.33-1.59.56-3.2,1-4.75a22.24,22.24,0,0,1,42.34-.9c.53,1.55.83,3.19,1.23,4.79V54.5a1.27,1.27,0,0,0-.12.23,45,45,0,0,1-4.75,12.43A184.94,184.94,0,0,1,55.11,90.28c-.87,1.19-1.76,2.38-2.69,3.64-.28-.35-.49-.61-.69-.89-2.87-4.08-5.82-8.12-8.61-12.27A126.5,126.5,0,0,1,33.31,63.7,42.77,42.77,0,0,1,30.08,54Zm22,8.12a9.56,9.56,0,1,0-9.39-9.66A9.47,9.47,0,0,0,52.07,62.11Z"/><path class="cls-2" d="M52.07,62.11a9.56,9.56,0,1,1,9.59-9.36A9.51,9.51,0,0,1,52.07,62.11Z"/></g></svg>