<svg xmlns="http://www.w3.org/2000/svg" viewBox="0 0 65 74"><defs><style>.cls-1{fill:#8a7a61;fill-rule:evenodd;}</style></defs><title>login</title><g id="按鍵"><path class="cls-1" d="M43.38,41.12a14.08,14.08,0,0,1,3.76,3,13.61,13.61,0,0,1,3.29,7.34c.1.84.1,1.68.13,2.52a.76.76,0,0,1-.71.81,2,2,0,0,1-.35,0H20.55c-.82,0-1.07-.26-1.08-1.08a13.94,13.94,0,0,1,3.12-9.23,13.74,13.74,0,0,1,3.77-3.23l.29-.17A10.89,10.89,0,0,1,24.24,32a10.72,10.72,0,0,1,4-6.6,11,11,0,0,1,14,.37A10.65,10.65,0,0,1,46,33.17,10.88,10.88,0,0,1,43.38,41.12ZM35,43.43A9.42,9.42,0,1,0,25.63,34,9.46,9.46,0,0,0,35,43.43Zm7.22-1.13-.36.28a10.71,10.71,0,0,1-9,2.2A10.53,10.53,0,0,1,28,42.47a.35.35,0,0,0-.48,0,28,28,0,0,0-2.34,1.65,12.08,12.08,0,0,0-4.07,7.68c-.07.48-.07,1-.1,1.46H49A12.31,12.31,0,0,0,42.22,42.3Z"/><path class="cls-1" d="M35,43.43A9.42,9.42,0,1,1,44.43,34,9.41,9.41,0,0,1,35,43.43Z"/><path class="cls-1" d="M42.22,42.3A12.31,12.31,0,0,1,49,53.21H21.05c0-.48,0-1,.1-1.46a12.08,12.08,0,0,1,4.07-7.68,28,28,0,0,1,2.34-1.65.35.35,0,0,1,.48,0,10.53,10.53,0,0,0,4.77,2.31,10.71,10.71,0,0,0,9-2.2Z"/></g></svg>