<svg id="按鍵" xmlns="http://www.w3.org/2000/svg" viewBox="0 0 50 54"><defs><style>.cls-1{fill:#ea5450;fill-rule:evenodd;}</style></defs><title>login</title><path class="cls-1" d="M34.38,31.12a14.08,14.08,0,0,1,3.76,3,13.61,13.61,0,0,1,3.29,7.34c.1.84.1,1.68.13,2.52a.76.76,0,0,1-.71.81,2,2,0,0,1-.35,0H11.55c-.82,0-1.07-.26-1.08-1.08a13.94,13.94,0,0,1,3.12-9.23,13.74,13.74,0,0,1,3.77-3.23l.29-.17A10.89,10.89,0,0,1,15.24,22a10.72,10.72,0,0,1,4-6.6,11,11,0,0,1,14,.37A10.65,10.65,0,0,1,37,23.17,10.88,10.88,0,0,1,34.38,31.12ZM26,33.43A9.42,9.42,0,1,0,16.63,24,9.46,9.46,0,0,0,26,33.43Zm7.22-1.13-.36.28a10.71,10.71,0,0,1-9,2.2A10.53,10.53,0,0,1,19,32.47a.35.35,0,0,0-.48,0,28,28,0,0,0-2.34,1.65,12.08,12.08,0,0,0-4.07,7.68c-.07.48-.07,1-.1,1.46H40A12.31,12.31,0,0,0,33.22,32.3Z"/><path class="cls-1" d="M26,33.43A9.42,9.42,0,1,1,35.43,24,9.41,9.41,0,0,1,26,33.43Z"/><path class="cls-1" d="M33.22,32.3A12.31,12.31,0,0,1,40,43.21H12.05c0-.48,0-1,.1-1.46a12.08,12.08,0,0,1,4.07-7.68,28,28,0,0,1,2.34-1.65.35.35,0,0,1,.48,0,10.53,10.53,0,0,0,4.77,2.31,10.71,10.71,0,0,0,9.05-2.2Z"/></svg>