<svg xmlns="http://www.w3.org/2000/svg" viewBox="0 0 77 86"><defs><style>.cls-1{fill:#18599b;fill-rule:evenodd;}</style></defs><title>購物車</title><g id="按鍵"><path class="cls-1" d="M26.15,48c.19.81.37,1.55.55,2.29s.21.83,1.09.83q10,0,19.94,0a1.58,1.58,0,0,1,1.24.47,1.35,1.35,0,0,1-1,2.27h-.86a3.26,3.26,0,0,1,1.21,2.49,3,3,0,0,1-1.25,2.42,3.07,3.07,0,0,1-4-.38c-1.2-1.26-1.1-2.76.32-4.51H31.29a3.16,3.16,0,0,1,1.2,2.47,3,3,0,0,1-1.25,2.42,3.06,3.06,0,0,1-4.08-.41c-1.17-1.26-1.06-2.77.37-4.5h-1.6a1.31,1.31,0,0,1-1.44-1.13L17.29,23c0-.12-.06-.23-.11-.4h-.47c-1.48,0-3,0-4.45,0a1.39,1.39,0,0,1-1.51-1.17,1.33,1.33,0,0,1,1.35-1.55c1.11,0,2.23,0,3.35,0h2.71A1.33,1.33,0,0,1,19.62,21c.3,1.2.6,2.4.86,3.61.08.36.22.46.59.46H55.2c1.28,0,1.85.72,1.55,2-.19.81-.39,1.62-.59,2.43Q54.08,38,52,46.65c-.26,1.08-.66,1.39-1.78,1.39H26.15Zm6.66-20.23c0,.2,0,.37,0,.54.12,1,.27,2,.37,3.08,0,.32.13.4.43.4h7.72l.38,0c.16-1.34.32-2.65.48-4Zm-2.76,0H21.27c0,.09,0,.16,0,.22.28,1.15.57,2.29.83,3.44.06.3.18.36.46.36h8C30.37,30.47,30.21,29.15,30.05,27.81Zm23.67,0H45c-.17,1.34-.32,2.65-.49,4h8.07a.36.36,0,0,0,.26-.22c.11-.38.2-.77.29-1.17C53.31,29.57,53.51,28.71,53.72,27.82ZM22.9,34.58c.32,1.34.64,2.65,1,3.94h7.51c-.17-1.32-.32-2.63-.48-3.94Zm29.23,0c-2.62,0-5.17,0-7.71,0-.09,0-.24.15-.26.25-.07.38-.1.77-.15,1.16-.09.84-.19,1.68-.29,2.54h7.45C51.49,37.2,51.8,35.91,52.13,34.56Zm-10.68,0H33.62c.16,1.34.32,2.64.47,3.94H41C41.13,37.2,41.29,35.91,41.45,34.58Zm-17,6.72c.3,1.23.6,2.43.87,3.63.07.3.18.39.48.39,2,0,3.93,0,5.9,0l.39,0c-.16-1.35-.32-2.66-.48-4Zm18.4,4h6.4c.1,0,.25-.18.28-.3.23-.84.43-1.69.63-2.53l.27-1.16H43.36C43.2,42.64,43.05,44,42.89,45.31Zm-2.27-4H34.39c.16,1.34.32,2.65.48,4h5c.1,0,.24-.18.27-.3.07-.37.1-.74.14-1.12C40.42,43,40.52,42.18,40.62,41.31Z"/></g></svg>