<svg id="按鍵" xmlns="http://www.w3.org/2000/svg" viewBox="0 0 95 144"><defs><style>.cls-1{fill:#ea5450;}.cls-1,.cls-2{fill-rule:evenodd;}.cls-2{fill:#fff;}</style></defs><title>地址</title><path class="cls-1" d="M25.08,64V60.73c.33-1.59.56-3.2,1-4.75a22.24,22.24,0,0,1,42.34-.9c.53,1.55.83,3.19,1.23,4.79V64.5a1.27,1.27,0,0,0-.12.23,45,45,0,0,1-4.75,12.43,184.94,184.94,0,0,1-14.68,23.12c-.87,1.19-1.76,2.38-2.69,3.64-.28-.35-.49-.61-.69-.89-2.87-4.08-5.82-8.12-8.61-12.27A126.5,126.5,0,0,1,28.31,73.7,42.77,42.77,0,0,1,25.08,64Zm22,8.12a9.56,9.56,0,1,0-9.39-9.66A9.47,9.47,0,0,0,47.07,72.11Z"/><path class="cls-2" d="M47.07,72.11a9.56,9.56,0,1,1,9.59-9.36A9.51,9.51,0,0,1,47.07,72.11Z"/></svg>