<svg id="按鍵" xmlns="http://www.w3.org/2000/svg" viewBox="0 0 420 420"><defs><style>.cls-1{fill:#fff;}</style></defs><title>家庭清潔icon</title><path class="cls-1" d="M219.77,219c2.45,1,4.63,1.86,6.82,2.7a15.78,15.78,0,0,0,12.78-.57c6.41-3,13.16-3.08,19.81-1.44A17.5,17.5,0,0,1,272.35,236c.28,7.24.29,14.51,0,21.75-.41,8.87-8.37,16.32-17.24,16.68-5.91.24-11.76.16-17.15-2.84a9.94,9.94,0,0,0-3-.82,15.07,15.07,0,0,0-9.61,1.4c-6.19,3-12.68,2.77-19.19,1.69a15.11,15.11,0,0,1-8.11-4.46,3.73,3.73,0,0,0-2.92-1.11q-34.53,0-69.06,0c-.55,0-1.1,0-1.65,0a3.16,3.16,0,0,1-3.37-3.11q-4.32-33.57-8.64-67.13c-1.08-8.44-2.2-16.88-3.33-25.56-1.94,0-3.9,0-5.86,0-2.62,0-3.74-1.09-3.76-3.69,0-3.68,0-7.36,0-11,0-2.75,1-3.79,3.77-3.8,3.24,0,6.49,0,9.73,0h1.92v-2.5c0-6.92,0-13.85,0-20.77a6.66,6.66,0,0,1,1.57-4.52c3.29-4,6.44-8.07,9.73-12a4.91,4.91,0,0,0,1.16-3.43c0-5.94,0-11.87,0-17.81,0-2.78,1-3.82,3.73-3.83q8.66,0,17.31,0c2.59,0,3.68,1.1,3.68,3.73,0,6,0,12.09,0,18.14a4.56,4.56,0,0,0,1.09,3.13c3.37,4.12,6.73,8.26,10,12.5a6.47,6.47,0,0,1,1.24,3.57c.11,7.36.09,14.73,0,22.09,0,1.34.33,1.88,1.73,1.76s2.84,0,4.38,0c0-.67.1-1.2.1-1.73,0-3.84.15-7.69,0-11.53a6.92,6.92,0,0,1,2.55-6.05,78.21,78.21,0,0,0,5.83-5.83,3.55,3.55,0,0,0,.89-2.12c.12-2.18.05-4.36.05-6.77-2,0-3.75,0-5.55,0-2.66,0-3.76-1.21-3.71-3.9.28-14.43,12.36-26.69,26.78-26.93,10.55-.17,21.1,0,31.65,0a3,3,0,0,1,3.41,3.34c0,3.9,0,7.81,0,11.71,0,2.27-1.24,3.44-3.5,3.45-3.29,0-6.59,0-9.89,0-2.09,0-3.1,1.87-4.54,3-.14.1.14.9.34,1.31,2.39,4.82,4.81,9.62,7.21,14.43.24.48.45,1,.72,1.55l-5.48,2.73-8-16c-1.5,1.2-2.89,2.26-4.2,3.42a1.86,1.86,0,0,0-.47,1.29c-.05,2.53-.09,5.06,0,7.58a3.28,3.28,0,0,0,.93,1.94q6.41,6.52,12.93,12.95a4.74,4.74,0,0,1,1.58,3.78c-.08,2.73,0,5.46,0,8.41h8.52c1.26,0,2.52,0,3.79,0a3,3,0,0,1,3.15,3.25q0,5.94,0,11.87a3.12,3.12,0,0,1-3.38,3.4c-2,0-4.06,0-6.26,0Q222.75,195.87,219.77,219ZM186,172.57c0,2,.06,3.89,0,5.79a2,2,0,0,0,1.3,2.14q7.85,3.81,15.61,7.79a9.89,9.89,0,0,1,5.39,10.23c-1.16,7.11-8.08,10.69-14.57,7.53-2.5-1.22-5-2.49-7.7-3.85v2q0,11.63,0,23.24c0,7.71-5.23,13-12.89,13q-14.92,0-29.84,0a14.25,14.25,0,0,1-2.62-.16,12.36,12.36,0,0,1-10.3-12.65q0-26.53,0-53.07v-2h-15q5.79,44.85,11.55,89.49h66.07a50.4,50.4,0,0,1-.72-5.73c-.08-6.49,0-13,0-19.46a17.15,17.15,0,0,1,3.35-10.15,18.31,18.31,0,0,1,16.17-7.87c1.27,0,1.9-.16,2.09-1.68,1.3-10.68,2.73-21.34,4.12-32,.54-4.17,1.05-8.34,1.58-12.58Zm-37.05,34v27.58h6.18V206.57h6.18v27.58h6.18V206.57h6.19V234.1c3.57.1,6.09-2.52,6.1-6.26,0-9.94,0-19.89,0-29.83,0-3.42,2.16-4.73,5.24-3.2l11.64,5.8a3.46,3.46,0,0,0,3.87-.25,3.81,3.81,0,0,0,1.56-3.77,4,4,0,0,0-2.51-3c-5.65-2.8-11.25-5.7-16.94-8.43a4.45,4.45,0,0,1-2.9-4.61c.11-6.15,0-12.3,0-18.46v-1.87H136.5v67.14c0,.44,0,.88,0,1.32a5.82,5.82,0,0,0,6.2,5.41v-27.5ZM251,249.69c1.51,0,2.61,0,3.71,0a12.36,12.36,0,0,0,11.64-11.57c.47-5.91-3.94-11.9-9.85-12.78-5.13-.77-10.23-.73-15.15,1.63a19.58,19.58,0,0,1-17.08.36A29.48,29.48,0,0,0,210.45,225a12.36,12.36,0,0,0-12,11.15c-.59,6.4,3.41,12.22,9.77,13.24,5,.8,10,.85,14.83-1.48a20.59,20.59,0,0,1,18-.26A19.72,19.72,0,0,0,251,249.69ZM121.07,153.8a5.81,5.81,0,0,0,.77.13c11.7,0,23.4,0,35.1,0,1.1,0,1.24-.51,1.23-1.41,0-6.32,0-12.63,0-19a9.72,9.72,0,0,0-.13-1.17h-37Zm145.35,98c-3,1.27-5.73,3.06-8.69,3.56-6.37,1.09-12.76,1-18.83-2a13.66,13.66,0,0,0-12.28-.34c-5,2.39-10.13,3-15.52,2.85a19.56,19.56,0,0,1-11.66-3.86,11.31,11.31,0,0,0-1.05-.62c0,1.94-.11,3.7,0,5.44.4,5.48,4.29,10.22,9.68,11,5,.75,10.13.82,15-1.53a19.83,19.83,0,0,1,17.53-.34c4.72,2.19,9.52,2.46,14.47,2.11a12,12,0,0,0,11-10.3C266.4,255.83,266.33,253.73,266.42,251.85Zm-89.72-98h37.05c0-2.3.07-4.49,0-6.67a3.58,3.58,0,0,0-.89-2.13q-5.87-6-11.89-11.89a3.17,3.17,0,0,0-2-.82c-4.56-.07-9.12-.06-13.68,0a3,3,0,0,0-1.85.74c-2,1.92-4,3.92-5.95,5.93a2.3,2.3,0,0,0-.73,1.36C176.68,144.8,176.7,149.24,176.7,153.83Zm37-58.56c-5.77,0-11.32-.23-16.84,0A21.29,21.29,0,0,0,177.25,112c-.12.55-.14,1.12-.23,1.8,7.69,0,15.15,0,22.61,0a2.56,2.56,0,0,0,1.44-.63q6-4.69,11.83-9.46a2.07,2.07,0,0,0,.8-1.3C213.79,100.06,213.74,97.76,213.74,95.27Zm15.34,70.94v-6h-43v6ZM124.52,125.92h30.13c-2.35-2.93-4.51-5.69-6.75-8.39a2.24,2.24,0,0,0-1.51-.69c-4.55,0-9.11,0-13.66,0a1.81,1.81,0,0,0-1.27.49C129.16,120.11,126.92,122.93,124.52,125.92Zm9-30.64v15.25h12.11V95.28ZM105.7,160.17v6h24.49v-6ZM186.09,120v6h12.07v-6Zm40-24.69H220v5.9h6.06Z"/><path class="cls-1" d="M226.07,237.33h-6v-6h6Z"/><path class="cls-1" d="M251,237.31v-6h6v6Z"/><path class="cls-1" d="M244.61,234.27v6.06h-6.12c0-1.76,0-3.54,0-5.32,0-.26.53-.7.82-.71C241,234.23,242.73,234.27,244.61,234.27Z"/><path class="cls-1" d="M207.74,234.36h5.92v5.95h-5.92Z"/><path class="cls-1" d="M251.76,96.66l12.65-3.53,4.88-1.34a4.84,4.84,0,0,0,3.65-3.65c1.51-5.53,3.07-11,4.62-16.57.09-.3.21-.6.43-1.21,1.12,4,2.16,7.74,3.19,11.45.58,2.07,1.21,4.13,1.73,6.21a4.93,4.93,0,0,0,3.8,3.81c5.53,1.51,11.05,3.06,16.57,4.59.28.08.55.19,1.12.39l-9.32,2.61c-2.8.79-5.6,1.58-8.41,2.33a4.88,4.88,0,0,0-3.74,3.71c-1.59,5.81-3.23,11.61-4.94,17.73-.24-.67-.41-1.06-.52-1.46-1.47-5.28-3-10.55-4.38-15.85a5.38,5.38,0,0,0-4.18-4.22c-5.74-1.52-11.45-3.17-17.17-4.77Zm10.95.12c2.75.77,5.13,1.46,7.52,2.12a7.59,7.59,0,0,1,5.61,5.62c.49,1.7,1,3.41,1.43,5.11.18.67.39,1.34.68,2.34.72-2.55,1.4-4.72,1.93-6.92a8.06,8.06,0,0,1,6.32-6.34c2.23-.56,4.43-1.22,7-1.93-2.64-.74-4.93-1.42-7.25-2a7.84,7.84,0,0,1-6-6c-.59-2.26-1.25-4.5-1.87-6.75a47.65,47.65,0,0,0-2,6.39,8.24,8.24,0,0,1-6.59,6.54C267.31,95.42,265.19,96.08,262.71,96.78Z"/><path class="cls-1" d="M293.35,126.46c4.52-1.26,8.73-2.47,13-3.61a5,5,0,0,0,3.77-3.83c1.05-3.91,2.17-7.8,3.26-11.7.09-.31.21-.62.41-1.18,1.19,4.27,2.39,8.26,3.39,12.3a5.72,5.72,0,0,0,4.59,4.61c4,1,8,2.21,12.4,3.42-1.1.34-1.89.6-2.68.82-3.41,1-6.82,1.92-10.24,2.83a5,5,0,0,0-3.88,3.88c-1.12,4.23-2.34,8.44-3.62,13-.77-2.71-1.44-5.1-2.11-7.48-.52-1.87-1.05-3.73-1.54-5.61a5,5,0,0,0-3.83-3.79c-3.95-1.05-7.88-2.18-11.82-3.28C294.14,126.77,293.88,126.65,293.35,126.46Zm20.39,9c.7-5.3,3.75-8.1,8.93-8.94-5.26-.77-8.15-3.69-9-8.93-.78,5.23-3.69,8.16-8.91,9C310,127.3,312.91,130.18,313.74,135.42Z"/><path class="cls-1" d="M323,104.21c-1-3.7-2-7.39-3-11.09a5,5,0,0,0-3.75-3.85c-3.58-1-7.13-2-11-3.15,1.4-.41,2.51-.76,3.63-1.08,2.44-.69,4.86-1.41,7.3-2.06A5,5,0,0,0,320,79c.85-3.35,1.8-6.67,2.72-10,.1-.36.22-.71.41-1.34,1.09,4,2.15,7.71,3.11,11.45A5,5,0,0,0,330,83c3.52,1,7,2,10.57,3.25l-5.31,1.55-5.48,1.55a4.71,4.71,0,0,0-3.52,3.59c-1,3.79-2.05,7.56-3.08,11.34Zm.12-25c-.87,3.88-3.06,6-6.94,6.95,3.95.86,6,3.09,7,6.92.83-3.91,3-6,6.84-7A8.36,8.36,0,0,1,323.11,79.18Z"/></svg>